inDegrees=no
num_controls=7
num_derivatives=13
num_iterations=123
num_multipliers=7
num_parameters=0
num_slacks=7
num_states=26
objective=5.422098
objective_accelerations=0.542456
objective_balance=0.099562
objective_effort=0.416351
objective_height=4.302122
objective_ligament=0.061608
solver_duration=1454.122783
status=Solve_Succeeded
success=true
DataType=double
version=3
OpenSimVersion=4.4-2022-07-23-0e9fedc
endheader
time	/jointset/ground_pelvis/pelvis_tilt/value	/jointset/ground_pelvis/pelvis_tx/value	/jointset/ground_pelvis/pelvis_ty/value	/jointset/hip_l/hip_flexion_l/value	/jointset/hip_l/hip_adduction_l/value	/jointset/hip_l/hip_rotation_l/value	/jointset/back/lumbar_extension/value	/jointset/patellofemoral_l/patellar_flexion_l/value	/jointset/knee_l/knee_flexion_l/value	/jointset/knee_l/knee_adduction_l/value	/jointset/knee_l/knee_rotation_l/value	/jointset/ankle_l/ankle_angle_l/value	/jointset/subtalar_l/subtalar_angle_l/value	/jointset/ground_pelvis/pelvis_tilt/speed	/jointset/ground_pelvis/pelvis_tx/speed	/jointset/ground_pelvis/pelvis_ty/speed	/jointset/hip_l/hip_flexion_l/speed	/jointset/hip_l/hip_adduction_l/speed	/jointset/hip_l/hip_rotation_l/speed	/jointset/back/lumbar_extension/speed	/jointset/patellofemoral_l/patellar_flexion_l/speed	/jointset/knee_l/knee_flexion_l/speed	/jointset/knee_l/knee_adduction_l/speed	/jointset/knee_l/knee_rotation_l/speed	/jointset/ankle_l/ankle_angle_l/speed	/jointset/subtalar_l/subtalar_angle_l/speed	/forceset/tau_hip_flexion_l	/forceset/tau_hip_adduction_l	/forceset/tau_hip_rotation_l	/forceset/tau_knee_flexion_l	/forceset/tau_ankle_angle_l	/forceset/tau_subtalar_angle_l	/forceset/tau_lumbar_extension	lambda_cid13_p0	lambda_cid13_p1	lambda_cid13_p2	lambda_cid13_p3	lambda_cid13_p4	lambda_cid13_p5	lambda_cid14_p0	/jointset/ground_pelvis/pelvis_tilt/accel	/jointset/ground_pelvis/pelvis_tx/accel	/jointset/ground_pelvis/pelvis_ty/accel	/jointset/hip_l/hip_flexion_l/accel	/jointset/hip_l/hip_adduction_l/accel	/jointset/hip_l/hip_rotation_l/accel	/jointset/back/lumbar_extension/accel	/jointset/patellofemoral_l/patellar_flexion_l/accel	/jointset/knee_l/knee_flexion_l/accel	/jointset/knee_l/knee_adduction_l/accel	/jointset/knee_l/knee_rotation_l/accel	/jointset/ankle_l/ankle_angle_l/accel	/jointset/subtalar_l/subtalar_angle_l/accel	gamma_cid13_p0	gamma_cid13_p1	gamma_cid13_p2	gamma_cid13_p3	gamma_cid13_p4	gamma_cid13_p5	gamma_cid14_p0
1.5	-0.4406275816868625	-0.06185844540365376	0.7754559718319032	1.211789220853278	-0.3088187843432036	-0.0608469702577524	-0.3389879458628857	0.6452653981962063	0.6452653981964387	-0.1735562122359184	0.1744902314559048	0.03826419765794918	-0.04736695623062923	0.7199771366169219	0.2437269083008058	0.4379418351860665	-2.193145451785284	0.04165206833894539	-0.5694649950175684	0.571531506539051	-1.6309423493845	-1.630942349384718	0.005438307466731951	-0.0004987956913419623	-0.2440878998597155	0.01264029075035788	-0.2467850812477443	0.02850411723059625	-0.01932009924281063	-0.1853986552778256	0.1186934866824114	0.03998658059536021	0.222410715730338	-0.929769355107012	-20.23761510511961	6.289841146668154	-2.697740737940459	-611.8927935790564	-55.36820356213088	-30.76245342341169	0.566499193081192	0.5931180951720098	-0.2514843276021161	-1.445300944616115	0.5154247369330069	-0.2589796788631099	1.648811420280669	-1.022834679845658	-1.02283467984576	-0.002262758364558463	-0.04607296695908566	-0.08309768842205764	0.4993781250904878	4.711866457044035e-08	1.011560208501822e-06	-2.890191692139522e-07	1.171265735925388e-07	1.733050387513233e-07	1.284643678497847e-07	1.579374887524737e-07
1.51	-0.433399915794376	-0.059391718105887	0.7798219872299951	1.189787660231607	-0.308377277513728	-0.06655505670729706	-0.3331915227333881	0.6289070916264661	0.6289070916264303	-0.173503015653332	0.1744847026327623	0.03581939655063228	-0.04721642200955035	0.7254547823366595	0.2495909210501956	0.4351752725741307	-2.20685933596519	0.04666107153719262	-0.572093094648935	0.5876789860750335	-1.640483732676536	-1.640483732676576	0.00521461323884963	-0.0005943861619674927	-0.2448216316025416	0.01748081031729591	-0.2389145662281675	0.02752843510357728	-0.01927377779018173	-0.1845315983856199	0.1195862676892804	0.03918156148257812	0.2163352920273903	-0.439674613059688	-20.07876832315463	6.384407262941345	-2.782198923224382	-607.8845061821455	-55.66903229024444	-31.64059352989882	0.5232195720408187	0.5789245490564623	-0.3021007278295696	-1.28831763194823	0.4953009095272951	-0.2556746702752388	1.586596228068688	-0.884537990901779	-0.8845379908746102	-0.0302051431361263	0.01069035682732712	-0.06089487667945839	0.4783858260429509	4.194097631303989e-08	1.072495420497439e-06	-2.792559226634154e-07	1.26334341917276e-07	1.819446782101667e-07	1.472508750138876e-07	1.613456503071243e-07
1.52	-0.4261205089826205	-0.05686717434377884	0.7841577653019981	1.16765818367263	-0.307885348092628	-0.07228761406613637	-0.327235848806982	0.6124604216564035	0.6124604216561174	-0.1734516124907103	0.1744786163936409	0.03336878133399288	-0.0470170832020932	0.7303253204812798	0.2552902011690865	0.431894369968307	-2.218728639235882	0.05173658666572954	-0.5743591768803934	0.6033816659234778	-1.648615029449361	-1.648615029449223	0.005079623485555548	-0.0006102788749261125	-0.2452507217240494	0.02240120802614621	-0.2310440512087066	0.02655275297657847	-0.01922745633820719	-0.183664541493354	0.1204790486961564	0.03837654236981961	0.2102598683243169	0.0428351070205754	-19.92078156403437	6.48160992505331	-2.853417465691794	-603.9965720715489	-56.02066190230873	-32.49677992185258	0.4450776780577436	0.560171569071894	-0.3543523263797962	-1.07638476277319	0.5287271229909903	-0.186576198881549	1.559851482773053	-0.7408173760033784	-0.7408173760034075	0.01547813655309834	-0.03013341542569161	-0.02216936415884423	0.5153537534728305	3.566629582530962e-08	1.132451813928105e-06	-2.715888792317621e-07	1.351809498902082e-07	1.895686742257525e-07	1.663899514714005e-07	1.643510657835943e-07
1.53	-0.4187953945388266	-0.05428652179818811	0.7884582025897549	1.145419205304886	-0.3073425007485663	-0.07804081445557107	-0.3211256009446893	0.5959394979325158	0.5959394979322882	-0.1734015012823485	0.1744726794669562	0.03091536205270249	-0.04676831750262363	0.7345956066999577	0.2608058506213376	0.428110484919525	-2.228753594525209	0.05682978157091503	-0.5761844771109871	0.6185744379537369	-1.655331806673272	-1.655331806673179	0.004921058026290235	-0.0005888980006843081	-0.2453851389593373	0.02735054270853892	-0.2230656171348998	0.02537939705850381	-0.01921474326469413	-0.1828321239699104	0.1214290742918449	0.03747831339974526	0.2040550602468742	0.5410292349013386	-19.72604458803717	6.574078123948585	-2.901843915076581	-600.0965658143584	-56.32780455095818	-33.32728681640794	0.4027189052675306	0.542122668288043	-0.4027570703154321	-0.9185230324835171	0.4990281935326739	-0.1658646953584363	1.484969776491238	-0.6014552587429435	-0.6014552587493299	-0.03456166847831119	0.01661398598185392	-0.001866517948896137	0.4843536734727174	2.822606109285396e-08	1.19136821263351e-06	-2.661490516139225e-07	1.436438249893476e-07	1.961135490828771e-07	1.859036328031614e-07	1.669285635519972e-07
